<?xml version="1.0" encoding="UTF-8" standalone="no"?>
<!-- Generator: Adobe Illustrator 24.3.0, SVG Export Plug-In . SVG Version: 6.00 Build 0)  -->

<svg
   version="1.1"
   id="Layer_1"
   x="0px"
   y="0px"
   width="98.293205"
   height="81.985367"
   viewBox="0 0 98.293206 81.985367"
   xml:space="preserve"
   sodipodi:docname="pbfw-m.svg"
   inkscape:version="1.1.1 (3bf5ae0d25, 2021-09-20)"
   inkscape:export-filename="C:\Users\ianho\OneDrive - Monash University\Resources\Images\stock-images\spfw.png"
   inkscape:export-xdpi="546.91138"
   inkscape:export-ydpi="546.91138"
   xmlns:inkscape="http://www.inkscape.org/namespaces/inkscape"
   xmlns:sodipodi="http://sodipodi.sourceforge.net/DTD/sodipodi-0.dtd"
   xmlns:xlink="http://www.w3.org/1999/xlink"
   xmlns="http://www.w3.org/2000/svg"
   xmlns:svg="http://www.w3.org/2000/svg"><defs
   id="defs44">
	
	
	
	
	
	
	
	
	
</defs><sodipodi:namedview
   id="namedview42"
   pagecolor="#505050"
   bordercolor="#eeeeee"
   borderopacity="1"
   inkscape:pageshadow="0"
   inkscape:pageopacity="0"
   inkscape:pagecheckerboard="0"
   showgrid="false"
   inkscape:zoom="8"
   inkscape:cx="33.5625"
   inkscape:cy="35.6875"
   inkscape:window-width="1920"
   inkscape:window-height="1009"
   inkscape:window-x="-8"
   inkscape:window-y="-8"
   inkscape:window-maximized="1"
   inkscape:current-layer="layer1"
   fit-margin-top="0"
   fit-margin-left="0"
   fit-margin-right="0"
   fit-margin-bottom="0" />
<style
   type="text/css"
   id="style2">
	.st0{fill:#EEEAE7;}
	.st1{fill:#997C4C;}
	.st2{fill:#404041;}
	.st3{fill:#6C6B6B;}
	.st4{fill:#979594;}
	.st5{clip-path:url(#SVGID_2_);}
	.st6{fill:#231F20;}
</style>




<g
   inkscape:groupmode="layer"
   id="layer1"
   inkscape:label="SVG"
   style="display:inline;opacity:1"
   transform="translate(-1.2944311,3.7722734)"><g
     id="g32"
     transform="matrix(10.647335,6.8866162,-6.8866162,10.647335,92.287499,-1027.1783)"
     style="opacity:1">
		<g
   id="g30">
			<defs
   id="defs21">
				<path
   id="SVGID_1_"
   d="m 73,55.4 c 0,-0.1 0,-0.2 0,-0.2 1.1,-4.6 1.9,-9.5 6.2,-12.5 5,-3.5 6.2,-10.4 2.7,-15.4 C 78.5,22.4 71.8,21.1 67,24.4 v 0 l -24.4,17 -10.2,7.2 -19.3,13.6 c 0,0 30.8,21.1 49.4,7.9 5.2,-3.4 8.9,-8.7 10.5,-14.7 z" />
			</defs>
			<clipPath
   id="SVGID_2_">
				<use
   xlink:href="#SVGID_1_"
   style="overflow:visible"
   id="use23"
   x="0"
   y="0"
   width="100%"
   height="100%" />
			</clipPath>
			<g
   class="st5"
   clip-path="url(#SVGID_2_)"
   id="g28">
				
			</g>
		</g>
	</g><path
     class="st0"
     d="m 50.162,37.279354 c -0.867937,2.167856 -2.778841,2.675893 -5.034653,4.485185 -0.08024,-2.497791 1.625006,-4.467808 -0.45101,-8.145321 1.030785,-0.698755 4.345577,2.068854 5.485663,3.660136 z"
     id="path4-1-9-1-3"
     sodipodi:nodetypes="cccc"
     style="display:inline;fill:#dddcc8;fill-opacity:1;stroke-width:1.5158" /><path
     class="st4"
     d="M 18.981565,14.085216 C 4.0229952,2.6067057 3.0060772,2.2689084 2.1254492,-0.9677486 c -1.73420099,-4.5525478 -0.323973,-1.8251886 0.366723,-2.5364213 0.470741,-0.5219748 1.719747,-0.1711869 2.194304,0.1217687 L 30.232274,18.656897 c 11.577442,9.040625 8.479014,6.594046 22.852279,18.849118 C 45.345647,35.470053 40.724377,30.906742 18.981565,14.085216 Z"
     id="path14"
     style="fill:#57aac7;fill-opacity:1;stroke-width:0.925707"
     sodipodi:nodetypes="ccccccc" /><path
     class="st3"
     d="m 49.693933,52.112385 c 0.669799,-0.702141 2.138587,-3.197433 2.300811,-2.941324 l 1.453555,2.294804 c 0.09546,0.117765 -1.853785,2.923209 -1.876129,3.136411 l 8.770035,14.270062 4.181132,1.472835 c 0.285928,0.10072 1.743989,1.383682 1.721639,1.59688 l 0.732417,1.467358 c -0.140116,0.308625 0.08136,0.760645 -0.227306,0.620496 -0.213204,-0.02235 -0.538911,-0.136614 -0.516563,-0.349816 l -1.245931,-1.995679 -6.609016,-2.159416 -3.406765,-1.276327 -2.170701,0.336134 c -0.308635,-0.140119 -0.817516,0.06974 -0.677395,-0.238846 -0.07307,-0.330974 -0.149193,-0.406405 0.116792,-0.616322 0.493409,-0.389118 1.826909,-0.746469 2.271528,-0.73206 0.338768,0.01095 2.820007,1.102617 3.000273,0.858883 L 57.829975,67.42696 49.411862,53.965777 c -0.244883,-0.413975 -0.362063,-1.183746 0.282045,-1.853415 z"
     id="path18892-0"
     sodipodi:nodetypes="cscccscccccccccssscccc"
     style="display:inline;fill:#5a5959;fill-opacity:1;stroke-width:1.5158" /><path
     class="st2"
     d="m 49.693933,52.112385 c 1.970467,-2.200135 3.078473,-3.778019 3.078473,-3.778019 0,0 2.353673,0.161101 2.399446,0.530624 -0.362747,0.709366 -1.847248,2.431259 -3.283394,4.809048 -0.380782,-1.951762 -1.256919,-1.306264 -2.194525,-1.561653 z"
     id="path12-8-3-7"
     sodipodi:nodetypes="ccccc"
     style="display:inline;fill:#d4d4d3;fill-opacity:1;stroke-width:0.932067" /><path
     class="st0"
     d="M 76.678338,57.406924 C 64.500444,63.810541 44.676821,45.121756 44.676821,45.121756 c 0,0 -2.625774,-2.002259 2.345296,-8.686542 4.394811,-1.613155 11.132833,-3.282011 18.606224,-4.059447 3.844525,-0.399935 1.54653,-0.54241 3.163474,-1.128175 14.111273,-7.47091 19.222725,-5.863064 23.941376,0.429152 3.619343,2.559742 1.487561,-0.19653 -0.440199,3.072785 -6.044063,5.426527 -6.959958,18.106414 -15.614654,22.657395 z"
     id="path4"
     sodipodi:nodetypes="sccscccs"
     style="fill:#d9d7db;fill-opacity:1;stroke-width:1.5158" /><path
     class="st0"
     d="m 78.184372,56.402901 c -4.068477,0.804258 -8.631345,-3.734131 -12.809231,-10.624668 -0.210074,-4.280247 -1.190537,-6.10202 0.182785,-13.359111 2.978088,-0.762485 1.939825,-0.583995 3.233889,-1.17153 14.142523,-6.68966 18.597725,-5.206814 23.941376,0.429152 3.619342,2.559742 1.487561,-0.19653 -0.440199,3.072785 -6.044063,5.426527 -5.453924,17.102391 -14.10862,21.653372 z"
     id="path4-1"
     sodipodi:nodetypes="ccccccc"
     style="display:inline;opacity:1;fill:#060604;fill-opacity:1;stroke-width:1.5158" /><path
     class="st0"
     d="M 78.725,42.809975 C 72.1785,49.28773 67.336272,32.210711 67.527356,32.032959 c 0,0 -0.02961,-0.197832 1.264459,-0.785367 14.392523,-6.87716 18.753975,-4.988064 23.941376,0.429152 -0.786908,1.497242 -0.615299,1.038732 -1.73056,2.214297 -5.464819,3.341249 -5.862679,4.136255 -12.277631,8.918934 z"
     id="path4-1-9"
     sodipodi:nodetypes="cccccc"
     style="display:inline;fill:#080a0d;fill-opacity:1;stroke-width:1.5158" /><path
     class="st0"
     d="m 49.450721,36.53983 c -1.143275,-2.036133 -0.846244,-0.07689 -0.839435,-2.968633 3.423773,0.52909 4.003975,0.230686 6.160125,1.054151 -2.978557,1.572309 -3.366289,2.025343 -5.32069,1.914482 z"
     id="path4-1-9-1"
     sodipodi:nodetypes="cccc"
     style="display:inline;fill:#080a0d;fill-opacity:1;stroke-width:1.5158" /><path
     class="st0"
     d="m 65.375141,45.778233 c 0.609101,-2.150393 2.066887,-2.70984 2.066887,-2.70984 2.481977,-1.451431 5.101466,-1.820497 6.39553,-2.408032 0.540279,4.352512 -0.950445,6.432298 -1.583737,7.700242 -2.306307,0.56924 -3.891727,0.0067 -6.87868,-2.58237 z"
     id="path4-1-2"
     sodipodi:nodetypes="ccccc"
     style="display:inline;fill:#1e1a74;fill-opacity:1;stroke-width:1.5158" /><path
     class="st0"
     d="m 78.790906,35.662823 c -7.241593,1.76657 -11.686653,-3.562597 -11.495569,-3.740349 0,0 0.202409,-0.08735 1.496478,-0.674882 14.111273,-7.47091 19.222725,-5.863064 23.941375,0.429152 -0.380657,2.028492 -0.09119,1.768192 -1.112699,1.287507 -7.511481,-3.107668 -4.059041,2.897392 -12.829585,2.698572 z"
     id="path4-1-9-5"
     sodipodi:nodetypes="cccccc"
     style="display:inline;opacity:1;fill:#5291e1;fill-opacity:1;stroke-width:1.5158" /><path
     class="st4"
     d="M 24.076155,15.426758 C 10.823341,5.511408 7.4867772,2.8908584 2.7638372,-1.3315066 c -0.581322,-0.5130699 -1.573269,-0.7720441 -1.183473,-0.6648171 0.256735,0.060151 0.728253,0.3192817 1.183473,0.6648171 L 30.625786,19.501708 C 41.595925,28.819336 49.588218,35.581764 49.151947,35.888231 48.715651,36.194659 35.356333,23.844851 24.076155,15.426758 Z"
     id="path14-5"
     style="fill:#abb3c3;fill-opacity:1;stroke-width:0.369147"
     sodipodi:nodetypes="cccccsc" /><path
     class="st3"
     d="m 69.086715,45.328583 c -3.144881,0.686155 -11.92677,-0.234663 -19.01121,-1.212965 -5.37964,-0.417583 -13.935243,-0.815983 -13.935243,-0.815983 0,0 -0.734522,-0.242268 -0.09047,-0.667977 6.910738,-2.746704 8.764769,-5.000603 10.972325,-6.196444 3.585494,-1.334285 8.924095,-3.215303 11.906425,-3.087116 4.636656,0.713281 8.487853,3.544146 9.6526,5.398552 0.912132,3.365396 3.298839,5.233668 1.365707,6.281568 -0.790255,0.428377 0.434717,-0.120166 -0.860134,0.300365 z"
     id="path34"
     style="fill:#ae8253;fill-opacity:1;stroke-width:0.847043"
     sodipodi:nodetypes="cccccccsc" /><path
     class="st3"
     d="M 69.688442,45.211747 C 57.432982,41.381173 54.889124,36.598721 55.284624,33.84715 c 0.843642,-0.262164 1.353336,-0.372381 3.643918,-0.499052 4.636655,0.713281 6.402575,3.215908 7.567322,5.070314 0.912132,3.365395 6.488412,4.960033 3.192578,6.793335 z"
     id="path34-4"
     style="display:inline;fill:#e09961;fill-opacity:1;stroke-width:0.847043"
     sodipodi:nodetypes="ccccc" /><path
     class="st3"
     d="M 70.68588,43.455292 C 63.762549,42.34341 58.466939,36.706401 58.928542,33.348098 c 3.25716,-0.706251 3.495832,-0.90394 7.23068,-1.060691 3.092005,3.088183 4.312463,5.784839 7.678336,8.372954 -1.694465,2.766843 -2.346592,2.216658 -3.151678,2.794931 z"
     id="path34-4-3"
     style="display:inline;fill:#ef6719;fill-opacity:1;stroke-width:0.847043"
     sodipodi:nodetypes="ccccc" /><path
     class="st2"
     d="m 92.733191,31.676744 6.453016,0.317082 c 0.299889,0.04436 0.53338,0.538439 0.316992,0.966153 -0.02211,0.14995 -0.366383,0.405532 -0.366383,0.405532 l -6.843824,1.384018 c -0.9711,-0.979985 -2.447872,-0.376962 0.440199,-3.072785 z"
     id="path12"
     sodipodi:nodetypes="cccccc"
     style="fill:#2c2725;fill-opacity:1;stroke-width:1.5158" /><path
     class="st3"
     d="m 51.129087,55.488568 c 0.394883,-0.471965 3.279897,-6.275157 3.582453,-6.294159 l 2.580659,-0.162079 c 0.119943,0.09268 -3.79534,8.297025 -3.768086,8.509651 l 10.7066,16.269986 4.990029,0.90151 c 0.298325,0.0539 1.553697,1.236363 1.580953,1.44899 l 1.032326,1.532808 c -0.06545,0.332563 -0.250801,0.572453 -0.583366,0.507022 -0.212628,0.02727 -0.665132,-0.130853 -0.692394,-0.343485 l -1.658071,-2.114565 -4.402332,-0.599237 -6.02618,-1.136832 -1.739766,1.189325 c -0.332568,-0.06545 -0.528818,-0.07092 -0.463387,-0.403482 -0.147197,-0.305311 -0.06002,-0.330946 0.180807,-0.569452 l 0.963363,-0.954064 c 0.240832,-0.238508 1.103166,-0.367266 1.403898,-0.405634 l 3.185071,0.554784 -10.99845,-16.307838 c -0.386015,-0.429206 -0.545935,-0.821474 0.125806,-1.623239 z"
     id="path18892"
     sodipodi:nodetypes="cscccscccccccccssscccc"
     style="fill:#595858;fill-opacity:1;stroke-width:1.5158" /><path
     class="st0"
     d="m 87.097657,32.225317 c 1.872097,2.855493 -0.499838,4.288033 -3.451251,7.251494 -1.060462,1.24651 -5.540162,4.603995 -7.951815,4.079968 0,0 -0.327033,-0.154661 -0.208442,-0.453226 3.657049,-2.126568 3.39174,-6.312684 3.304757,-7.44073 -0.19747,-1.183232 4.283289,-5.646333 8.306751,-3.437506 z"
     id="path39"
     style="fill:#97d9e3;fill-opacity:1;stroke-width:1.5158"
     sodipodi:nodetypes="cccccc" /><path
     class="st6"
     d="m 86.127989,35.833475 c -1.076953,0.413983 -2.27906,-0.07476 -2.693044,-1.15172 v 0 c -0.413987,-1.076954 0.07477,-2.279055 1.175101,-2.797113 1.053573,-0.309911 2.255677,0.178836 2.797118,1.175099 0.309913,1.053569 -0.178836,2.255675 -1.279175,2.773734 z"
     id="path36-2"
     style="display:inline;fill:#6acdf3;fill-opacity:1;stroke-width:1.06668" /><path
     class="st6"
     d="m 86.123569,35.817944 c -1.024785,0.393931 -2.16866,-0.07114 -2.562591,-1.095929 v 0 c -0.393932,-1.024786 0.07114,-2.168656 1.118178,-2.66162 1.002537,-0.294899 2.146411,0.170173 2.661624,1.118176 0.2949,1.002536 -0.170173,2.14641 -1.217211,2.639373 z"
     id="path36"
     style="fill:#000000;fill-opacity:1;stroke-width:1.01501" /><path
     class="st2"
     d="m 51.57217,54.602276 c 1.727344,-3.160682 2.589612,-5.319994 2.589612,-5.319994 0,0 2.955701,-0.648152 3.130417,-0.249952 -0.220611,0.923089 -1.501352,3.376438 -2.512558,6.548164 -1.09435,-2.054275 -1.968858,-1.022022 -3.207471,-0.978218 z"
     id="path12-8-3"
     sodipodi:nodetypes="ccccc"
     style="display:inline;fill:#d4d4d3;fill-opacity:1;stroke-width:1.14007" /></g></svg>
