<?xml version="1.0" encoding="UTF-8" standalone="no"?>
<svg
   width="333.34399"
   height="333.353"
   version="1.1"
   id="svg12"
   sodipodi:docname="Stan-logo.svg"
   inkscape:version="1.1.1 (3bf5ae0d25, 2021-09-20)"
   xmlns:inkscape="http://www.inkscape.org/namespaces/inkscape"
   xmlns:sodipodi="http://sodipodi.sourceforge.net/DTD/sodipodi-0.dtd"
   xmlns="http://www.w3.org/2000/svg"
   xmlns:svg="http://www.w3.org/2000/svg">
  <defs
     id="defs16" />
  <sodipodi:namedview
     id="namedview14"
     pagecolor="#505050"
     bordercolor="#eeeeee"
     borderopacity="1"
     inkscape:pageshadow="0"
     inkscape:pageopacity="0"
     inkscape:pagecheckerboard="0"
     showgrid="false"
     inkscape:zoom="0.78300048"
     inkscape:cx="166.66656"
     inkscape:cy="166.66656"
     inkscape:window-width="1920"
     inkscape:window-height="1009"
     inkscape:window-x="-8"
     inkscape:window-y="-8"
     inkscape:window-maximized="1"
     inkscape:current-layer="svg12" />
  <circle
     cx="166.625"
     cy="166.5"
     r="166.5"
     fill="#f2e5bd"
     id="circle2" />
  <path
     style="fill:#3e8ebc;fill-opacity:1;stroke:none"
     d="M 166.657,0.01 C 74.606,0.01 0,74.646 0,166.697 c 0,43.472 16.648,83.049 43.907,112.718 20.201,-6.122 40.603,-11.817 57.218,-16.156 48.062,-12.551 130.337,-33.765 142.22,-60.5 -3.343,9.283 -14.5,34.156 -14.5,34.156 -15.225,14.853 -84.416,31.327 -129.97,40.094 -14.532,2.797 -31.119,6.03 -47.937,9.594 29.975,28.93 70.764,46.75 115.719,46.75 92.05,0 166.687,-74.606 166.687,-166.656 0,-27.328 -6.593,-53.116 -18.25,-75.875 -30.076,4.852 -124.963,22.076 -149.281,27.562 -26.839,6.055 -80.826,17.06 -91.594,35.625 6.684,-17.08 26.875,-61.812 26.875,-61.812 14.482,-23.765 78.592,-40.766 123.313,-53.125 10.43,-2.883 22.89,-6.421 36,-10.219 C 233.697,10.65 201.417,0.009 166.657,0.009 Z"
     id="path4" />
  <path
     style="fill:#052744;fill-opacity:1;stroke:none"
     d="m 74.086,154.626 c -2.997,13.986 41.906,27.53 82.392,40.339 40.486,12.809 57.533,19.73 67.465,26.103 16.1,-7.7 19.79,-19.216 19.79,-19.216 4.495,-17.731 -35.866,-40.403 -62.78,-50.345 -26.916,-9.942 -32.944,-14.72 -52.466,-24.315 -51.393,13.602 -54.4,27.434 -54.4,27.434 z"
     id="path6" />
  <text
     xml:space="preserve"
     style="font-style:normal;font-variant:normal;font-weight:400;font-stretch:normal;font-size:20px;line-height:125%;font-family:Liberation, Arial, sans-serif;text-align:start;letter-spacing:0;word-spacing:0;writing-mode:lr-tb;text-anchor:start;fill:#052744;fill-opacity:1;stroke:none;stroke-width:1"
     x="243.99855"
     y="332.08322"
     transform="scale(1.0067275,0.9933175)"
     id="text10"><tspan
       x="243.99855"
       y="332.08322"
       id="tspan8"
       style="stroke-width:1">®</tspan></text>
</svg>
